<svg width="61" height="59" viewBox="0 0 61 59" fill="none" xmlns="http://www.w3.org/2000/svg">
<path fill-rule="evenodd" clip-rule="evenodd" d="M47.5886 6.18876C47.5033 6.6099 47.463 6.80938 47.4072 7.08262L47.1331 7.2629C46.9918 7.82138 46.8618 8.36218 46.7175 8.89876C46.5959 9.35163 46.4315 9.79496 46.3348 10.2523C46.2272 10.7618 46.0613 11.2542 45.9762 11.7752C45.8999 12.2455 45.9537 12.7712 45.7081 13.1937C45.4215 13.6842 45.5968 14.2327 45.414 14.7338C45.2448 15.1965 45.1623 15.6906 45.0423 16.1697C45.0531 16.172 45.1263 16.1868 45.2172 16.2058C45.0467 17.68 44.8388 19.1569 45.1152 20.7247C45.091 20.758 45.01 20.8708 44.9103 21.0093C45.0106 21.042 45.1022 21.0719 45.1967 21.1025C45.2795 21.9563 45.4173 22.8206 45.474 23.6733C45.5435 24.7232 45.8577 25.7442 45.7674 26.8165C45.7221 27.355 45.8511 27.9414 46.0439 28.4522C46.1624 28.765 45.9504 28.8271 45.8745 29.0223C45.9896 29.0759 46.1046 29.1301 46.259 29.2021C46.3245 29.8789 46.3923 30.5756 46.4618 31.2934C46.2857 31.2654 46.1793 31.2482 46.011 31.2216C45.887 31.5372 45.5088 31.774 45.7962 32.4205C45.5081 32.2004 45.3299 32.0643 45.1106 31.8968C45.0383 32.331 45.0098 32.5016 44.9737 32.7167C45.1083 32.7803 45.2345 32.8396 45.3733 32.905C45.3865 33.106 45.4024 33.3365 45.4172 33.5588C45.332 33.5974 45.2423 33.6698 45.2052 33.6496C44.9322 33.4961 44.6692 33.324 44.4051 33.1591C43.9044 33.3711 44.2329 33.7821 44.1685 34.0957C44.0945 34.0805 44.0208 34.0649 43.9183 34.0441C43.8442 34.1732 43.7649 34.3106 43.6816 34.4552C43.3727 34.3316 43.0815 34.2153 42.6683 34.0499C42.0956 33.3076 41.5042 32.3988 40.7609 31.6383C40.3774 31.2451 40.1207 30.699 39.6937 30.4395C39.1636 30.1169 39.0673 29.5086 38.6355 29.2066C38.1597 28.8731 37.9671 28.324 37.5613 27.998C37.1157 27.6402 36.901 27.1066 36.4965 26.7798C35.5335 26.0018 34.8756 24.9031 33.7902 24.2661C33.6282 23.7712 32.9862 23.5927 32.962 23.0072C32.4016 22.7532 32.0056 22.3018 31.5835 21.8774C30.9879 21.2781 30.2073 20.8844 29.7168 20.1585C29.5779 19.9534 29.2813 19.855 28.9161 19.6158C29.2421 20.669 29.5216 21.573 29.8637 22.6787C29.833 22.7743 29.73 23.0919 29.6259 23.4122C29.8865 23.6349 30.0698 23.7915 30.2652 23.9589C30.4963 25.0245 31.1457 26.0734 30.93 27.2837C31.4712 27.3392 31.4723 27.9264 31.7712 28.1691C31.9202 29.5129 32.574 30.6252 33.0398 31.9594C33.0343 31.9803 32.9881 32.1619 32.9441 32.3346C33.0566 32.8441 33.55 33.1373 33.5595 33.7261C33.5659 34.1532 33.8255 34.6374 34.11 34.9832C34.4571 35.4053 34.6244 35.9264 34.6707 36.3714C34.7283 36.924 35.1188 37.2055 35.2847 37.6994C35.2533 37.8236 35.2074 38.0055 35.1437 38.2576C35.8459 39.1358 36.2859 40.2024 36.856 41.2319C36.7959 41.4034 36.7354 41.5745 36.6578 41.7957L37.2943 42.7632C37.0748 42.7356 36.9735 42.7224 36.7622 42.6952C37.1275 43.1486 37.0521 43.5948 36.8611 44.0898C36.7402 44.0975 36.6008 44.1064 36.4826 44.1143C36.3074 44.9098 36.1274 45.7268 35.9634 46.4722C35.6658 46.5654 35.4398 46.6358 35.1482 46.7269C35.0706 46.6804 34.9247 46.5928 34.7791 46.5057L34.558 46.6512C34.5897 46.7717 34.6245 46.9044 34.6776 47.1065C34.1475 47.5142 33.5612 47.4269 32.9758 47.2757C32.6129 46.8862 32.6129 46.8862 31.8697 46.9472C32.1178 47.0756 32.2117 47.1243 32.3579 47.2003C32.2872 47.2781 32.2072 47.3668 32.0955 47.4894C31.9245 47.2989 31.7844 47.1423 31.6102 46.9485C31.5655 47.084 31.5353 47.1737 31.5131 47.2404C30.8103 47.209 30.1059 47.1776 29.3166 47.1421L29.0402 46.722C28.9916 46.8883 28.9628 46.9856 28.9242 47.1176C28.8144 47.0322 28.7111 46.9513 28.5746 46.8448L28.175 47.1078C27.9719 47.0659 27.8248 47.0352 27.6768 47.0047C27.7127 46.687 27.5273 46.3321 27.8369 46.0565C27.2181 46.0317 27.2913 46.5394 27.1508 46.9858C27.0115 46.8097 26.9029 46.6725 26.7892 46.5281C26.2469 46.5488 25.7074 46.4559 25.164 46.7912C24.7105 47.0712 24.2006 46.7739 23.7285 46.4504C23.6786 46.5863 23.6485 46.6686 23.5889 46.8328C23.4446 46.6858 23.3169 46.5551 23.1543 46.3885C23.1136 46.424 23.0537 46.4769 22.875 46.6331C22.5113 46.62 21.9862 46.503 21.5084 46.6066C20.8281 46.7542 20.2566 46.2804 19.5624 46.4431C18.9537 46.5858 18.296 46.5365 17.6386 46.433C16.742 46.2921 15.8123 46.3643 14.8306 46.3439L15.1712 46.8615C15.2889 46.8445 15.4584 46.8203 15.6898 46.7876C15.694 46.9855 15.6975 47.1588 15.7023 47.3659C16.0002 47.5134 16.3023 47.7019 16.6306 47.8137C16.9055 47.9074 17.1442 48.2334 17.4926 48.0026C17.6336 48.422 18.0253 48.44 18.3684 48.5147C18.3465 48.6194 18.3314 48.6928 18.3196 48.7501C19.5754 49.0275 20.6717 49.644 21.7314 50.345C22.1378 50.4188 22.5439 50.4926 22.9462 50.5661L23.1521 50.8789C23.7241 51.0996 24.2216 51.2913 24.7879 51.5092C24.6679 51.7443 24.5829 51.9113 24.4732 52.1268C24.805 52.2957 25.1171 52.4543 25.4062 52.6013C25.6119 52.3796 25.7898 52.1888 25.9656 51.9993C26.7103 52.315 27.3936 52.6046 28.2675 52.9752C27.8469 53.1324 27.6256 53.0063 27.373 52.9817C27.3892 53.5045 27.8477 53.3228 28.0937 53.4525C28.0877 53.5888 28.0806 53.7244 28.0665 54.0148C28.273 53.9444 28.4663 53.8787 28.6596 53.813C28.6445 53.8918 28.6294 53.9707 28.6147 54.0493C28.6888 53.8988 28.7629 53.7485 28.8449 53.583C29.1343 53.7515 29.3732 53.8909 29.6086 54.0285C29.589 54.1713 29.5741 54.2798 29.5577 54.3966C29.6556 54.421 29.7593 54.4475 29.8935 54.4812C30.1186 54.2642 30.3584 54.034 30.5765 53.8236C31.5224 54.2886 32.4221 54.7314 33.3222 55.174C33.313 55.2167 33.3045 55.2595 33.2955 55.3016C33.1879 55.297 33.0805 55.2928 32.8145 55.2819C33.2155 55.7008 33.5464 56.0463 33.931 56.4477C33.6394 56.7928 33.3697 57.1115 32.9779 57.5741C32.976 57.5946 32.9572 57.8177 32.9333 58.1007C31.6937 57.5567 30.4318 57.3175 29.209 56.9956C27.5165 56.5497 25.9537 55.7984 24.3085 55.2511C22.5956 54.6814 20.9574 53.8841 19.2845 53.1913C18.3322 52.7966 17.3668 52.4311 16.4222 52.0179C15.0963 51.4375 13.7585 50.8758 12.4799 50.2037C11.9166 49.9075 11.2783 49.8326 10.7451 49.4154C10.2873 49.0572 9.64355 48.9348 9.07958 48.7144C7.63952 48.1511 6.21766 47.5461 4.71492 47.146C3.73622 46.886 2.79109 46.4969 1.69055 46.1173L0.949056 44.9903C1.21671 44.8017 1.44132 44.5018 1.93823 44.6052C1.80267 44.3389 1.67575 44.0902 1.55587 43.8552C2.03204 42.8955 2.81337 42.2699 3.86324 41.7518C3.98482 41.7987 4.22804 41.8925 4.67389 42.0638C4.72514 42.0995 4.97986 42.2764 5.28555 42.4893C5.51128 42.1881 5.68082 41.962 5.84055 41.7488C6.34414 41.7765 6.85094 41.7698 7.34598 41.8418C7.76792 41.9028 8.25696 41.5587 8.5802 42.1925C8.62836 41.962 8.64325 41.8881 8.67188 41.7508C9.12783 42.0776 9.74533 41.5141 10.1475 42.1074C10.3258 42.0182 10.4859 41.9382 10.6753 41.8433C10.7445 41.9093 10.8205 41.9819 10.9046 42.0623C12.3072 41.7509 13.7234 41.9744 15.1656 42.0985C15.2348 42.053 15.3275 41.9414 15.424 41.9374C15.8139 41.9218 16.3056 41.7942 16.5729 41.9782C17.007 42.2778 17.603 41.8544 17.9173 42.4211C18.1544 42.284 18.3741 42.1568 18.6095 42.0202C18.7169 42.0998 18.8284 42.1826 18.9648 42.2838C19.0791 42.217 19.2043 42.1436 19.398 42.031C19.7577 42.1151 20.1761 42.2128 20.6711 42.3284C20.5251 42.5677 20.4388 42.7087 20.319 42.9041C20.6603 42.9066 20.9681 42.9088 21.2763 42.9109C21.332 42.7904 21.3869 42.6705 21.4743 42.4786C21.6628 42.5698 21.8274 42.6941 22.0072 42.7225C22.1644 42.7475 22.3389 42.6645 22.5031 42.6298C22.5467 42.5223 22.5994 42.392 22.6892 42.1707C22.8848 42.2666 23.0517 42.3492 23.333 42.4874C23.3548 42.5568 23.4271 42.7849 23.5091 43.0444L23.8915 42.7928C24.2745 43.0014 24.5405 43.1502 25.0134 42.9655C25.8172 42.6513 26.725 42.6852 27.591 42.596C27.7237 42.5821 27.8746 42.7474 28.0153 42.8294C28.0503 42.7147 28.0795 42.6195 28.0764 42.6291C28.5593 42.6902 29.0186 42.6836 29.4319 42.8182C29.8522 42.9546 30.2277 43.2306 30.7224 43.5002C30.9839 43.4486 30.9073 43.2144 30.4666 42.7715C30.9485 42.9275 31.1103 42.9797 31.3065 43.0435C31.3252 43.2008 31.3444 43.3627 31.381 43.6708C31.5754 43.3971 31.706 43.2135 31.8531 43.0061C31.9452 43.012 32.0516 43.0179 32.225 43.0282C32.2493 42.8857 32.3589 42.6536 32.2904 42.5728C31.955 42.1776 31.9476 41.7179 31.9094 41.2914C31.2737 40.7199 31.2566 39.8636 30.9068 39.175C30.5209 38.4174 30.1677 37.6274 29.938 36.8126C29.7174 36.0326 29.5134 35.2289 29.1424 34.5339C28.7482 33.7961 28.5801 32.9949 28.2463 32.2458C27.9061 31.482 27.6719 30.6627 27.4705 29.8478C27.277 29.0623 26.9012 28.3471 26.7172 27.5506C26.5301 26.7409 26.2737 25.9186 25.9515 25.1523C25.6322 24.3927 25.5499 23.59 25.2812 22.8288C25.0133 22.0704 24.7812 21.2979 24.5725 20.521C24.3557 19.7146 24.1925 18.8938 23.9933 18.0823C23.802 17.3024 23.5946 16.526 23.3773 15.6824C23.4343 15.4065 23.5091 15.0418 23.5834 14.6821C23.6789 14.6961 23.7876 14.7114 23.8854 14.7259C24.3083 14.4894 24.0762 14.1447 24.0582 13.8868C24.4146 13.5452 24.748 13.2252 25.1085 12.8795C25.1643 12.8889 25.2739 12.907 25.3753 12.9241C25.5788 12.1586 26.2203 12.2174 26.7733 12.2538C27.3318 12.291 27.8807 12.4653 28.4722 12.5872C29.1976 13.4125 30.4536 13.7166 30.8571 14.9371C31.0154 14.8741 31.1131 14.8351 31.2768 14.7695C31.7355 15.267 32.2202 15.7935 32.7689 16.3894C32.795 16.3816 32.9235 16.3432 33.0187 16.3148C33.5087 16.743 33.9953 17.1472 34.4547 17.5803C34.6352 17.7506 34.8685 17.9793 34.8796 18.1922C34.9083 18.7332 35.1245 19.0579 35.6072 19.2981C35.8291 19.4086 35.9597 19.7004 36.2554 19.8177L35.7684 19.0775C35.9172 19.0564 36.0159 19.0262 36.0251 19.044C36.3052 19.5677 36.7929 19.8998 37.2329 20.246C37.6036 20.5375 37.9461 20.9142 37.9722 21.2862C38.006 21.7687 38.355 21.9743 38.5043 22.5411C38.6065 22.2736 38.6362 22.196 38.6662 22.1172C39.3938 22.4402 39.6475 22.6079 39.7197 23.1902C39.7773 23.656 40.1051 23.8598 40.4002 24.1357C40.2638 23.8664 40.1273 23.5973 39.8926 23.1343C40.424 23.6594 40.7971 24.0282 41.3233 24.5487C41.0147 22.6143 41.2174 20.8786 41.2287 19.1423C41.2402 17.3736 41.3853 16.4591 41.8501 15.0684C41.9343 14.8157 41.8566 14.5124 41.9228 14.2497C42.0382 13.795 42.2463 13.3616 42.3428 12.9039C42.4313 12.4837 42.3595 12.0257 42.4707 11.6145C42.7658 10.5264 43.2406 9.49211 43.4647 8.37831C43.4867 8.26919 43.6841 8.19485 43.8134 8.09437C43.8082 7.90646 43.7377 7.6756 43.8076 7.50071C44.149 6.64599 44.4732 5.77679 44.9115 4.9713C45.2598 4.33107 45.5558 3.66342 45.962 3.0396C46.3632 2.42327 46.9176 2.00295 47.3719 1.477C47.842 0.933088 48.5675 0.682368 49.3556 0.565994C49.2196 1.60947 50.3593 1.7585 50.7613 2.45689C50.5778 2.12444 50.394 1.79166 50.2103 1.45888C50.2626 1.42902 50.3153 1.39925 50.3676 1.36931L50.7785 1.99395C50.9028 2.18283 51.024 2.37384 51.1518 2.55992C51.2958 2.76818 51.3864 3.0432 51.7162 3.02901C51.515 3.32899 51.9912 3.34141 51.9453 3.5406C51.8638 3.89829 52.3982 3.69094 52.3554 4.0374C52.3321 4.22869 52.4336 4.45094 52.5255 4.63598C52.6393 4.86449 52.8014 5.06869 52.9296 5.26351C52.8086 5.42195 52.7246 5.53227 52.5915 5.70666C52.7956 5.65457 52.9247 5.62171 53.1045 5.57541C53.1789 5.6697 53.2669 5.78084 53.4105 5.96297C53.3489 6.26338 53.2757 6.6194 53.2099 6.93931C53.329 7.10054 53.415 7.21692 53.4935 7.32351C53.6592 7.28441 53.794 7.25267 53.9805 7.2084C53.8713 7.38977 53.7876 7.5286 53.7042 7.66777L53.8403 7.8747C53.9989 7.85212 54.1687 7.82825 54.3557 7.80135C54.5365 8.46036 54.6167 9.1325 55.0211 9.71622C55.2039 9.98065 55.1876 10.383 55.2695 10.7601C55.2629 10.7575 55.3263 10.7792 55.4231 10.8127C55.6087 11.3714 55.8011 11.9503 56.038 12.6636C55.7369 12.5686 55.536 12.505 55.3489 12.4461C55.5048 12.7749 55.6591 12.9589 55.9815 13.1906C55.9793 13.2263 55.9808 13.2625 55.9749 13.2981C55.9617 13.3722 55.9451 13.4456 55.927 13.5319C56.0008 13.5438 56.0743 13.554 56.1471 13.568C56.1824 13.575 56.2167 13.5892 56.2539 13.6014C56.3364 13.9031 56.4193 14.2071 56.5283 14.6064L55.6985 15.1523C55.7057 15.2085 55.7134 15.2645 55.7211 15.3208C55.8908 15.3202 56.0606 15.3191 56.3021 15.3184C56.3457 15.2362 56.4224 15.0904 56.569 14.8136C56.7482 15.3214 56.8948 15.7356 57.0367 16.138C56.9391 16.2385 56.8656 16.3136 56.7893 16.392C57.4249 16.6557 57.3941 17.1771 57.353 17.7138C57.3402 17.885 57.3638 18.0671 57.4111 18.2324C57.5167 18.6032 57.6478 18.9667 57.7938 19.408C57.7848 19.4185 57.7172 19.4981 57.5779 19.6631C57.7049 19.8305 57.8572 20.0312 58.0998 20.3501C58.1094 20.2669 58.0692 20.3707 58.0912 20.4583C58.2685 21.1687 58.5299 21.857 58.6486 22.5831C58.66 22.6515 58.7249 22.7088 58.7488 22.7769C58.9038 23.2204 58.5266 23.7134 58.8589 24.1349C59.1524 24.507 59.0023 24.9587 59.1153 25.3633C59.237 25.7985 59.318 26.2449 59.4091 26.6877C59.4374 26.8243 59.415 26.9749 59.463 27.1015C59.5148 27.2389 59.6214 27.3557 59.7418 27.5387C59.6834 27.7031 59.6091 27.9142 59.5535 28.0702L59.9746 28.7104C59.8266 29.3497 59.6664 29.994 60.1235 30.5907C60.1642 30.6437 60.2065 30.7305 60.1914 30.786C59.9356 31.7257 60.4936 32.5739 60.4822 33.5016C60.4713 34.3962 60.7578 35.2906 60.824 36.1915C60.9121 37.385 60.9143 38.5843 60.9469 39.7816C60.9503 39.8915 60.9296 40.0161 60.8783 40.1114C60.3992 41.0027 59.9104 41.889 59.4707 42.6934C58.9475 42.9086 58.5175 43.0855 57.9645 43.3129C57.7718 43.2226 57.4552 43.0738 57.1476 42.9296C57.0104 42.296 56.8469 41.6887 56.7549 41.0704C56.6625 40.449 56.5951 39.8161 56.5986 39.1891C56.6052 37.8163 56.3044 36.4772 56.2119 35.1181C56.1571 34.3137 55.8619 33.5243 56.0493 32.7044C55.6126 31.4022 55.5511 30.0365 55.3316 28.697C55.2367 28.1179 55.2278 27.5179 55.0371 26.9462C54.8607 26.4197 54.7675 25.8658 54.6354 25.3245C54.2239 23.6319 53.8201 21.938 53.3959 20.2488C53.1751 19.3692 52.9345 18.4933 52.673 17.6247C52.4093 16.7499 52.049 15.8879 51.8296 15.0203C51.4451 13.4997 50.661 12.1505 50.2239 10.6586C49.9932 9.87077 49.4861 9.15726 49.0581 8.43733C48.6415 7.73558 48.1671 7.06803 47.5886 6.18876Z" fill="#004DB3"/>
</svg>
