<svg width="16" height="16" viewBox="0 0 16 16" fill="none" xmlns="http://www.w3.org/2000/svg">
<path d="M6.33342 11V5L11.0001 8L6.33342 11ZM8.00008 15.3333C6.80008 15.3333 5.67519 15.0582 4.62541 14.508C3.57519 13.9582 2.70008 13.1889 2.00008 12.2V14H0.666748V10H4.66675V11.3333H3.03341C3.60008 12.1667 4.31941 12.8196 5.19141 13.292C6.06386 13.764 7.00008 14 8.00008 14C9.27786 14 10.4361 13.6333 11.4747 12.9C12.5139 12.1667 13.2445 11.1944 13.6667 9.98333L14.9667 10.2833C14.4667 11.7944 13.5779 13.014 12.3001 13.942C11.0223 14.8696 9.58897 15.3333 8.00008 15.3333ZM0.700081 7.33333C0.777859 6.58889 0.955637 5.87489 1.23341 5.19133C1.51119 4.50822 1.89453 3.87777 2.38341 3.3L3.33341 4.25C2.97786 4.70555 2.68897 5.19155 2.46675 5.708C2.24453 6.22489 2.10564 6.76666 2.05008 7.33333H0.700081ZM4.26675 3.31666L3.31675 2.36666C3.90564 1.87777 4.53897 1.49155 5.21675 1.208C5.89453 0.924886 6.60008 0.755553 7.33342 0.699997V2.03333C6.76675 2.08889 6.22786 2.22777 5.71675 2.45C5.20564 2.67222 4.7223 2.96111 4.26675 3.31666ZM11.7501 3.31666C11.2945 2.96111 10.8085 2.67222 10.2921 2.45C9.77519 2.22777 9.23341 2.08889 8.66675 2.03333V0.699997C9.41119 0.766664 10.125 0.938886 10.8081 1.21666C11.4916 1.49444 12.1223 1.87777 12.7001 2.36666L11.7501 3.31666ZM13.9667 7.33333C13.9112 6.76666 13.7723 6.22489 13.5501 5.708C13.3279 5.19155 13.039 4.70555 12.6834 4.25L13.6334 3.3C14.1223 3.87777 14.5056 4.50822 14.7834 5.19133C15.0612 5.87489 15.2334 6.58889 15.3001 7.33333H13.9667Z" fill="#9269CD"/>
</svg>
