<svg width="12" height="14" viewBox="0 0 12 14" fill="none" xmlns="http://www.w3.org/2000/svg">
<path d="M3.33341 11H8.66675V9.66666H3.33341V11ZM3.33341 8.33333H8.66675V6.99999H3.33341V8.33333ZM2.00008 13.6667C1.63341 13.6667 1.31964 13.5362 1.05875 13.2753C0.797415 13.014 0.666748 12.7 0.666748 12.3333V1.66666C0.666748 1.29999 0.797415 0.985995 1.05875 0.724661C1.31964 0.463773 1.63341 0.333328 2.00008 0.333328H7.33342L11.3334 4.33333V12.3333C11.3334 12.7 11.203 13.014 10.9421 13.2753C10.6807 13.5362 10.3667 13.6667 10.0001 13.6667H2.00008ZM6.66675 4.99999V1.66666H2.00008V12.3333H10.0001V4.99999H6.66675Z" fill="#5978CF"/>
</svg>
