<svg width="16" height="15" viewBox="0 0 16 15" fill="none" xmlns="http://www.w3.org/2000/svg">
<path d="M0.666748 8.00001C0.666748 6.97778 0.858526 6.02223 1.24208 5.13334C1.62519 4.24445 2.15008 3.46934 2.81675 2.80801C3.48341 2.14712 4.26119 1.62489 5.15008 1.24134C6.03897 0.858227 6.98897 0.666672 8.00008 0.666672C9.01119 0.666672 9.96119 0.858227 10.8501 1.24134C11.739 1.62489 12.5167 2.14712 13.1834 2.80801C13.8501 3.46934 14.3752 4.24445 14.7587 5.13334C15.1419 6.02223 15.3334 6.97778 15.3334 8.00001H14.0001C14.0001 7.16667 13.8419 6.38601 13.5254 5.65801C13.2085 4.93045 12.7779 4.29445 12.2334 3.75001C11.689 3.20556 11.053 2.77778 10.3254 2.46667C9.59741 2.15556 8.8223 2.00001 8.00008 2.00001C7.17786 2.00001 6.40275 2.15556 5.67475 2.46667C4.94719 2.77778 4.31119 3.20556 3.76675 3.75001C3.2223 4.29445 2.79164 4.93045 2.47475 5.65801C2.1583 6.38601 2.00008 7.16667 2.00008 8.00001H0.666748ZM3.33341 8.00001C3.33341 6.68889 3.78897 5.58334 4.70008 4.68334C5.61119 3.78334 6.71119 3.33334 8.00008 3.33334C9.28897 3.33334 10.389 3.78334 11.3001 4.68334C12.2112 5.58334 12.6667 6.68889 12.6667 8.00001H11.3334C11.3334 7.07778 11.0085 6.29156 10.3587 5.64134C9.70853 4.99156 8.9223 4.66667 8.00008 4.66667C7.07786 4.66667 6.29186 4.99156 5.64208 5.64134C4.99186 6.29156 4.66675 7.07778 4.66675 8.00001H3.33341ZM6.00008 14.9333L5.06675 14L7.33342 11.7333V9.53334C7.03341 9.40001 6.79186 9.19445 6.60875 8.91667C6.42519 8.63889 6.33342 8.33334 6.33342 8.00001C6.33342 7.53334 6.49453 7.13889 6.81675 6.81667C7.13897 6.49445 7.53341 6.33334 8.00008 6.33334C8.46675 6.33334 8.86119 6.49445 9.18341 6.81667C9.50564 7.13889 9.66675 7.53334 9.66675 8.00001C9.66675 8.33334 9.57519 8.63889 9.39208 8.91667C9.20853 9.19445 8.96675 9.40001 8.66675 9.53334V11.7333L10.9334 14L10.0001 14.9333L8.00008 12.9333L6.00008 14.9333Z" fill="#F69E8E"/>
</svg>
