<svg width="12" height="12" viewBox="0 0 12 12" fill="none" xmlns="http://www.w3.org/2000/svg">
<path d="M7.33333 11.8167V10.45C8.33333 10.1611 9.13889 9.60555 9.75 8.78333C10.3611 7.9611 10.6667 7.02777 10.6667 5.98333C10.6667 4.93888 10.3611 4.00555 9.75 3.18333C9.13889 2.36111 8.33333 1.80555 7.33333 1.51666V0.149994C8.71111 0.461105 9.83333 1.15822 10.7 2.24133C11.5667 3.32488 12 4.57222 12 5.98333C12 7.39444 11.5667 8.64155 10.7 9.72466C9.83333 10.8082 8.71111 11.5055 7.33333 11.8167ZM0 7.99999V3.99999H2.66667L6 0.666661V11.3333L2.66667 7.99999H0ZM7.33333 8.66666V3.29999C7.85556 3.54444 8.264 3.91111 8.55867 4.39999C8.85289 4.88888 9 5.42222 9 5.99999C9 6.56666 8.85289 7.09155 8.55867 7.57466C8.264 8.05822 7.85556 8.42222 7.33333 8.66666Z" fill="#3FA96A"/>
</svg>
